<?xml version="1.0" encoding="iso-8859-1"?>
<!-- Generator: Adobe Illustrator 19.0.0, SVG Export Plug-In . SVG Version: 6.00 Build 0)  -->
<svg version="1.1" id="Capa_1" xmlns="http://www.w3.org/2000/svg" xmlns:xlink="http://www.w3.org/1999/xlink" x="0px" y="0px"
	 viewBox="0 0 425.376 425.376" style="enable-background:new 0 0 425.376 425.376;" xml:space="preserve">
<rect x="156.688" y="202.016" style="fill:#7AA3D6;" width="112" height="79.328"/>
<path style="fill:#EFEEEE;" d="M364.688,409.376h-96v-128h-112v128h-96V228.688l152-152l152,152V409.376z"/>
<path style="fill:#D84234;" d="M268.688,409.376h-112v-128h112V409.376z"/>
<rect x="156.688" y="201.376" style="fill:#7AA3D6;" width="112" height="48"/>
<g>
	<polygon style="fill:#010101;" points="213.28,8 0,220.688 11.312,232 213.28,30.624 414.064,232 425.376,220.688 	"/>
	<path style="fill:#010101;" d="M52.688,225.376v192h320v-192l-160-160L52.688,225.376z M260.688,401.376h-96v-112h96V401.376z
		 M356.688,401.376h-80c0-108.656,0-80.336,0-128c-46.288,0-81.392,0-128,0c0,45.328,0,78.928,0,128h-80V232l144-144l144,144
		V401.376z"/>
	<path style="fill:#010101;" d="M148.688,257.376c23.952,0,100.064,0,128,0c0-30.688,0-33.312,0-64c-27.664,0-102.544,0-128,0
		C148.688,224.064,148.688,226.688,148.688,257.376z M220.688,209.376h40v32h-40V209.376z M164.688,209.376h40v32h-40V209.376z"/>
</g>
<g>
</g>
<g>
</g>
<g>
</g>
<g>
</g>
<g>
</g>
<g>
</g>
<g>
</g>
<g>
</g>
<g>
</g>
<g>
</g>
<g>
</g>
<g>
</g>
<g>
</g>
<g>
</g>
<g>
</g>
</svg>
